####
#
#	OBJ File Generated by LightWave3D
#	LightWave3D OBJ Export v2.3
#
####
o COBRA.obj
mtllib COBRA.mtl
g default
v -0.863998 0.023007 -2.177
v 3.45599 -0.192996 0.955005
v 3.24001 -0.058002 0.091006
v 0.863998 -0.625003 0.955005
v -0.863998 -0.625003 0.955005
v -3.24001 -0.058002 0.091006
v -3.45599 -0.192996 0.955005
v 3.45599 -0.192996 0.955005
v 2.37601 0.454999 0.955005
v 0.863998 -0.625003 0.955005
v -0.863998 -0.625003 0.955005
v 0 0.725003 0.955005
v -2.37601 0.454999 0.955005
v -3.45599 -0.192996 0.955005
v -0.863998 0.023007 -2.177
v 0 0.725003 -0.773007
v 3.45599 -0.192996 0.955005
v 3.24001 -0.058002 0.091006
v 2.37601 0.454999 0.955005
v 0 0.725003 0.955005
v -3.24001 -0.058002 0.091006
v -2.37601 0.454999 0.955005
v -3.45599 -0.192996 0.955005
v 0.863998 0.023007 -2.177
v 0 0.023007 -2.55501
v 0 0.023007 -2.177
vt 0.0246515 0.58519
vt 0.0249515 0.574343
vt 0.04 0.0594006
vt 0.0543593 0.696472
vt 0.0546593 0.469174
vt 0.115 0.898946
vt 0.115 0.952448
vt 0.173196 0.58519
vt 0.182186 0.1362
vt 0.381163 0.988591
vt 0.38125 0.0082
vt 0.381463 0.193107
vt 0.381463 0.574343
vt 0.495 0.1682
vt 0.5 0.58519
vt 0.5 0.807757
vt 0.5 0.988591
vt 0.60875 0.0082
vt 0.618837 0.988591
vt 0.619137 0.193107
vt 0.619137 0.574343
vt 0.807814 0.1362
vt 0.826804 0.58519
vt 0.945641 0.696472
vt 0.945941 0.469174
vt 0.95 0.0594006
vt 0.975349 0.58519
vt 0.975648 0.574343
vn 0 -0 1
vn 0 -0 1
vn 0 -0 1
vn 0 -0 1
vn 0 -0 1
vn 0 -0 1
vn 0 -0 1
vn 0.161356 -0.968119 -0.191599
vn 0.161356 -0.968119 -0.191599
vn 0.161356 -0.968119 -0.191599
vn -0.161356 -0.968119 -0.191599
vn -0.161356 -0.968119 -0.191599
vn -0.161356 -0.968119 -0.191599
vn 0.158001 -0.966959 -0.200063
vn 0.158001 -0.966959 -0.200063
vn 0.158001 -0.966959 -0.200063
vn -0.158001 -0.966959 -0.200063
vn -0.158001 -0.966959 -0.200063
vn -0.158001 -0.966959 -0.200063
vn 0.51449 0.85748 0.00535935
vn 0.51449 0.85748 0.00535935
vn 0.51449 0.85748 0.00535935
vn -0.51449 0.85748 0.00535928
vn -0.51449 0.85748 0.00535928
vn -0.51449 0.85748 0.00535928
vn 0.112911 0.993605 -0
vn 0.112911 0.993605 -0
vn 0.112911 0.993605 -0
vn -0.112911 0.993605 -0
vn -0.112911 0.993605 -0
vn -0.112911 0.993605 -0
vn -0.291082 0.921752 -0.256211
vn -0.291082 0.921752 -0.256211
vn -0.291082 0.921752 -0.256211
vn -0.291082 0.921752 -0.256211
vn 0.294706 0.914843 -0.276063
vn 0.294706 0.914843 -0.276063
vn 0.294706 0.914843 -0.276063
vn 0.294706 0.914843 -0.276063
vn 0 -0.97926 -0.202608
vn 0 -0.97926 -0.202608
vn 0 -0.97926 -0.202608
vn 0 -0.97926 -0.202608
vn 0 0.894427 -0.447214
vn 0 0.894427 -0.447214
vn 0 0.894427 -0.447214
g TEXTURE
usemtl TEXTURE
s off
f 14/3/1 11/11/2 10/18/3 8/26/4 9/22/5 12/14/6 13/9/7
f 3/5/8 2/2/9 4/13/10
f 7/28/11 6/25/12 5/21/13
f 3/5/14 4/13/15 24/12/16
f 1/20/17 5/21/18 6/25/19
f 19/23/20 17/27/21 18/24/22
f 21/4/23 23/1/24 22/8/25
f 16/16/26 20/15/27 19/23/28
f 22/8/29 20/15/30 16/16/31
f 16/16/32 15/10/33 21/4/34 22/8/35
f 16/16/36 19/23/37 18/24/38 24/19/39
f 24/12/40 4/13/41 5/21/42 1/20/43
f 24/17/44 15/10/45 16/16/46
l 25/7 26/6
