####
#
#	OBJ File Generated by LightWave3D
#	LightWave3D OBJ Export v2.3
#
####
o recognizer2.obj
mtllib recognizer2.mtl
g default
v -0.4575 0.12 -0.05
v -0.3725 0.12 -0.05
v -0.3725 0.215 -0.05
v -0.4575 0.215 -0.05
v -0.4525 0.045 -0.05
v -0.3725 0.045 -0.05
v -0.3725 -0.33 -0.05
v -0.2375 -0.41 -0.05
v -0.4525 -0.41 -0.05
v -0.4575 0.07 -0.05
v 0.4625 0.07 -0.05
v 0.4625 0.095 -0.05
v -0.4575 0.095 -0.05
v -0.4925 0.24 -0.05
v -0.0125 0.24 -0.05
v -0.0125 0.26 -0.05
v -0.4925 0.26 -0.05
v -0.3575 0.155 -0.05
v -0.2875 0.155 -0.05
v -0.2875 0.185 -0.05
v -0.3575 0.185 -0.05
v -0.2925 0.23 -0.05
v -0.1575 0.23 -0.05
v -0.1075 0.17 -0.05
v -0.0175 0.17 -0.05
v -0.0175 0.135 -0.05
v -0.2175 0.135 -0.05
v 0.4575 0.12 -0.05
v 0.4575 0.215 -0.05
v 0.3725 0.215 -0.05
v 0.3725 0.12 -0.05
v 0.4525 0.045 -0.05
v 0.4525 -0.41 -0.05
v 0.2375 -0.41 -0.05
v 0.3725 -0.33 -0.05
v 0.3725 0.045 -0.05
v 0.4925 0.24 -0.05
v 0.4925 0.26 -0.05
v 0.0125 0.26 -0.05
v 0.0125 0.24 -0.05
v 0.3575 0.155 -0.05
v 0.3575 0.185 -0.05
v 0.2875 0.185 -0.05
v 0.2875 0.155 -0.05
v 0.2925 0.23 -0.05
v 0.2175 0.135 -0.05
v 0.0175 0.135 -0.05
v 0.0175 0.17 -0.05
v 0.1075 0.17 -0.05
v 0.1575 0.23 -0.05
v -0.0825 0.055 -0.05
v 0.0825 0.055 -0.05
v 0.0625 0.035 -0.05
v -0.0575 0.035 -0.05
v -0.0895 0.105 -0.05
v 0.0905 0.105 -0.05
v 0.0905 0.123 -0.05
v -0.0895 0.123 -0.05
v -0.1255 0.219 -0.05
v 0.1245 0.219 -0.05
v 0.0885 0.177 -0.05
v -0.0875 0.177 -0.05
v -0.4575 0.12 0.05
v -0.3725 0.12 0.05
v -0.3725 0.215 0.05
v -0.4575 0.215 0.05
v -0.4525 0.045 0.05
v -0.3725 0.045 0.05
v -0.3725 -0.33 0.05
v -0.2375 -0.41 0.05
v -0.4525 -0.41 0.05
v -0.4575 0.07 0.05
v 0.4625 0.07 0.05
v 0.4625 0.095 0.05
v -0.4575 0.095 0.05
v -0.4925 0.24 0.05
v -0.0125 0.24 0.05
v -0.0125 0.26 0.05
v -0.4925 0.26 0.05
v -0.3575 0.155 0.05
v -0.2875 0.155 0.05
v -0.2875 0.185 0.05
v -0.3575 0.185 0.05
v -0.2925 0.23 0.05
v -0.1575 0.23 0.05
v -0.1075 0.17 0.05
v -0.0175 0.17 0.05
v -0.0175 0.135 0.05
v -0.2175 0.135 0.05
v 0.4575 0.12 0.05
v 0.4575 0.215 0.05
v 0.3725 0.215 0.05
v 0.3725 0.12 0.05
v 0.4525 0.045 0.05
v 0.4525 -0.41 0.05
v 0.2375 -0.41 0.05
v 0.3725 -0.33 0.05
v 0.3725 0.045 0.05
v 0.4925 0.24 0.05
v 0.4925 0.26 0.05
v 0.0125 0.26 0.05
v 0.0125 0.24 0.05
v 0.3575 0.155 0.05
v 0.3575 0.185 0.05
v 0.2875 0.185 0.05
v 0.2875 0.155 0.05
v 0.2925 0.23 0.05
v 0.2175 0.135 0.05
v 0.0175 0.135 0.05
v 0.0175 0.17 0.05
v 0.1075 0.17 0.05
v 0.1575 0.23 0.05
v -0.0825 0.055 0.05
v 0.0825 0.055 0.05
v 0.0625 0.035 0.05
v -0.0575 0.035 0.05
v -0.0895 0.105 0.05
v 0.0905 0.105 0.05
v 0.0905 0.123 0.05
v -0.0895 0.123 0.05
v -0.1255 0.219 0.05
v 0.1245 0.219 0.05
v 0.0885 0.177 0.05
v -0.0875 0.177 0.05
v -0.2352 0.281 -0.049725
v 0.23406 0.281 -0.049725
v 0.2285 0.263 -0.0425
v -0.2295 0.263 -0.0425
v -0.02272 0.395 -0.0130475
v 0.02578 0.395 -0.0130475
v -0.2352 0.281 0.049725
v 0.23406 0.281 0.049725
v 0.2285 0.263 0.0425
v -0.2295 0.263 0.0425
v -0.02272 0.395 0.0065025
v 0.02578 0.395 0.0065025
v 0.00442686 0.38135 -0.030104
v -0.00346766 0.364718 -0.0371063
v 0.0125317 0.364844 -0.0371653
v 0.00446576 0.379007 -0.0245808
v -0.00342876 0.362374 -0.0315832
v 0.0125706 0.362501 -0.0316421
vn -1 0 -0
vn -1 0 -0
vn -1 0 -0
vn -1 0 -0
vn 0 -1 -0
vn 0 -1 -0
vn 0 -1 -0
vn 0 -1 -0
vn 1 0 -0
vn 1 0 -0
vn 1 0 -0
vn 1 0 -0
vn 0 1 0
vn 0 1 0
vn 0 1 0
vn 0 1 0
vn -1 0 -0
vn -1 0 -0
vn -1 0 -0
vn -1 0 -0
vn 0 1 0
vn 0 1 0
vn 0 1 0
vn 0 1 0
vn 1 0 -0
vn 1 0 -0
vn 1 0 -0
vn 1 0 -0
vn 0.509802 0.860292 0
vn 0.509802 0.860292 0
vn 0.509802 0.860292 0
vn 0.509802 0.860292 0
vn 0 -1 -0
vn 0 -1 -0
vn 0 -1 -0
vn 0 -1 -0
vn -1 0 -0
vn -1 0 -0
vn -1 0 -0
vn -1 0 -0
vn 0 -1 -0
vn 0 -1 -0
vn 0 -1 -0
vn 0 -1 -0
vn 1 0 -0
vn 1 0 -0
vn 1 0 -0
vn 1 0 -0
vn 0 1 -0
vn 0 1 -0
vn 0 1 -0
vn 0 1 -0
vn -1 0 -0
vn -1 0 -0
vn -1 0 -0
vn -1 0 -0
vn 0 -1 -0
vn 0 -1 -0
vn 0 -1 -0
vn 0 -1 -0
vn 1 0 -0
vn 1 0 -0
vn 1 0 -0
vn 1 0 -0
vn 0 1 0
vn 0 1 0
vn 0 1 0
vn 0 1 0
vn -1 0 -0
vn -1 0 -0
vn -1 0 -0
vn -1 0 -0
vn 0 -1 -0
vn 0 -1 -0
vn 0 -1 -0
vn 0 -1 -0
vn 1 0 -0
vn 1 0 -0
vn 1 0 -0
vn 1 0 -0
vn 0 1 0
vn 0 1 0
vn 0 1 0
vn 0 1 0
vn -0.784883 -0.619644 -0
vn -0.784883 -0.619644 -0
vn -0.784883 -0.619644 -0
vn -0.784883 -0.619644 -0
vn 0 1 0
vn 0 1 0
vn 0 1 0
vn 0 1 0
vn 0.768221 0.640185 0
vn 0.768221 0.640185 0
vn 0.768221 0.640185 0
vn 0.768221 0.640185 0
vn 0 1 0
vn 0 1 0
vn 0 1 0
vn 0 1 0
vn 1 0 -0
vn 1 0 -0
vn 1 0 -0
vn 1 0 -0
vn 0 -1 -0
vn 0 -1 -0
vn 0 -1 -0
vn 0 -1 -0
vn 0 -1 -0
vn 0 -1 -0
vn 0 -1 -0
vn 0 -1 -0
vn 1 0 -0
vn 1 0 -0
vn 1 0 -0
vn 1 0 -0
vn 0 1 -0
vn 0 1 -0
vn 0 1 -0
vn 0 1 -0
vn -1 0 -0
vn -1 0 -0
vn -1 0 -0
vn -1 0 -0
vn 0 1 -0
vn 0 1 -0
vn 0 1 -0
vn 0 1 -0
vn 1 0 -0
vn 1 0 -0
vn 1 0 -0
vn 1 0 -0
vn 0 -1 -0
vn 0 -1 -0
vn 0 -1 -0
vn 0 -1 -0
vn -0.509802 0.860292 -0
vn -0.509802 0.860292 -0
vn -0.509802 0.860292 -0
vn -0.509802 0.860292 -0
vn -1 0 -0
vn -1 0 -0
vn -1 0 -0
vn -1 0 -0
vn 0 -1 -0
vn 0 -1 -0
vn 0 -1 -0
vn 0 -1 -0
vn 1 0 -0
vn 1 0 -0
vn 1 0 -0
vn 1 0 -0
vn 0 1 -0
vn 0 1 -0
vn 0 1 -0
vn 0 1 -0
vn -1 0 -0
vn -1 0 -0
vn -1 0 -0
vn -1 0 -0
vn 0 -1 -0
vn 0 -1 -0
vn 0 -1 -0
vn 0 -1 -0
vn 1 0 -0
vn 1 0 -0
vn 1 0 -0
vn 1 0 -0
vn 0 1 -0
vn 0 1 -0
vn 0 1 -0
vn 0 1 -0
vn -1 0 -0
vn -1 0 -0
vn -1 0 -0
vn -1 0 -0
vn 0 1 -0
vn 0 1 -0
vn 0 1 -0
vn 0 1 -0
vn 0.784883 -0.619644 -0
vn 0.784883 -0.619644 -0
vn 0.784883 -0.619644 -0
vn 0.784883 -0.619644 -0
vn 0 -1 -0
vn 0 -1 -0
vn 0 -1 -0
vn 0 -1 -0
vn -1 0 -0
vn -1 0 -0
vn -1 0 -0
vn -1 0 -0
vn 0 1 -0
vn 0 1 -0
vn 0 1 -0
vn 0 1 -0
vn -0.768221 0.640185 -0
vn -0.768221 0.640185 -0
vn -0.768221 0.640185 -0
vn -0.768221 0.640185 -0
vn -0.624695 -0.780869 -0
vn -0.624695 -0.780869 -0
vn -0.624695 -0.780869 -0
vn -0.624695 -0.780869 -0
vn 0 1 -0
vn 0 1 -0
vn 0 1 -0
vn 0 1 -0
vn 0.707107 -0.707107 -0
vn 0.707107 -0.707107 -0
vn 0.707107 -0.707107 -0
vn 0.707107 -0.707107 -0
vn 0 -1 -0
vn 0 -1 -0
vn 0 -1 -0
vn 0 -1 -0
vn -1 0 -0
vn -1 0 -0
vn -1 0 -0
vn -1 0 -0
vn 0 -1 -0
vn 0 -1 -0
vn 0 -1 -0
vn 0 -1 -0
vn 1 0 -0
vn 1 0 -0
vn 1 0 -0
vn 1 0 -0
vn 0 1 -0
vn 0 1 -0
vn 0 1 -0
vn 0 1 -0
vn -0.741536 -0.670913 -0
vn -0.741536 -0.670913 -0
vn -0.741536 -0.670913 -0
vn -0.741536 -0.670913 -0
vn 0 1 -0
vn 0 1 -0
vn 0 1 -0
vn 0 1 -0
vn 0.759257 -0.650791 -0
vn 0.759257 -0.650791 -0
vn 0.759257 -0.650791 -0
vn 0.759257 -0.650791 -0
vn 0 -1 -0
vn 0 -1 -0
vn 0 -1 -0
vn 0 -1 -0
vn 0 0 -1
vn 0 0 -1
vn 0 0 -1
vn 0 0 -1
vn 0 0 1
vn 0 0 1
vn 0 0 1
vn 0 0 1
vn 0 0 -1
vn 0 0 -1
vn 0 0 -1
vn 0 0 -1
vn 0 0 1
vn 0 0 1
vn 0 0 1
vn 0 0 1
vn 0 0 -1
vn 0 0 -1
vn 0 0 -1
vn 0 0 -1
vn 0 0 1
vn 0 0 1
vn 0 0 1
vn 0 0 1
vn 0 0 -1
vn 0 0 -1
vn 0 0 -1
vn 0 0 -1
vn 0 0 1
vn 0 0 1
vn 0 0 1
vn 0 0 1
vn 0 -0 -1
vn 0 -0 -1
vn 0 -0 -1
vn 0 -0 -1
vn 0 0 1
vn 0 0 1
vn 0 0 1
vn 0 0 1
vn 0 -0 -1
vn 0 -0 -1
vn 0 -0 -1
vn 0 -0 -1
vn 0 0 1
vn 0 0 1
vn 0 0 1
vn 0 0 1
vn 0 -0 -1
vn 0 -0 -1
vn 0 -0 -1
vn 0 -0 -1
vn 0 0 1
vn 0 0 1
vn 0 0 1
vn 0 0 1
vn -0 0 -1
vn -0 0 -1
vn -0 0 -1
vn -0 0 -1
vn 0 0 1
vn 0 0 1
vn 0 0 1
vn 0 0 1
vn 0 0 -1
vn 0 0 -1
vn 0 0 -1
vn 0 0 -1
vn 0 0 1
vn 0 0 1
vn 0 0 1
vn 0 0 1
vn -0 0 -1
vn -0 0 -1
vn -0 0 -1
vn -0 0 -1
vn 0 0 1
vn 0 0 1
vn 0 0 1
vn 0 0 1
vn -0.953342 -0.301892 -0
vn -0.953342 -0.301892 -0
vn -0.953342 -0.301892 -0
vn -0.953342 -0.301892 -0
vn 0.955457 -0.29513 -0
vn 0.955457 -0.29513 -0
vn 0.955457 -0.29513 -0
vn 0.955457 -0.29513 -0
vn 0 -1 -0
vn 0 -1 -0
vn 0 -1 -0
vn 0 -1 -0
vn 0.480126 0.877199 0
vn 0.480126 0.877199 0
vn 0.480126 0.877199 0
vn 0.480126 0.877199 0
vn -0.472774 0.881184 -0
vn -0.472774 0.881184 -0
vn -0.472774 0.881184 -0
vn -0.472774 0.881184 -0
vn 0 1 -0
vn 0 1 -0
vn 0 1 -0
vn 0 1 -0
vn 0 -0.372501 -0.928032
vn 0 -0.372501 -0.928032
vn 0 -0.372501 -0.928032
vn 0 -0.372501 -0.928032
vn 0 -0.372501 0.928032
vn 0 -0.372501 0.928032
vn 0 -0.372501 0.928032
vn 0 -0.372501 0.928032
vn 0 0.306271 -0.951944
vn 0 0.306271 -0.951944
vn 0 0.306271 -0.951944
vn 0 0.306271 -0.951944
vn 0 0.354519 0.935049
vn 0 0.354519 0.935049
vn 0 0.354519 0.935049
vn 0 0.354519 0.935049
vn 0.911403 0.381088 0.155293
vn 0.911403 0.381088 0.155293
vn 0.911403 0.381088 0.155293
vn 0.911403 0.381088 0.155293
vn -0.91615 0.366629 0.162028
vn -0.91615 0.366629 0.162028
vn -0.91615 0.366629 0.162028
vn -0.91615 0.366629 0.162028
vn 0.00584246 -0.920518 -0.390656
vn 0.00584246 -0.920518 -0.390656
vn 0.00584246 -0.920518 -0.390656
vn 0.00584246 -0.920518 -0.390656
vn -0.00648266 0.390619 -0.920529
vn -0.00648266 0.390619 -0.920529
vn -0.00648266 0.390619 -0.920529
vn 0.00648266 -0.390619 0.920529
vn 0.00648266 -0.390619 0.920529
vn 0.00648266 -0.390619 0.920529
vn 0 -0 -1
vn 0 -0 -1
vn 0 -0 -1
vn 0 0 -1
vn 0 0 -1
vn 0 0 -1
vn 0 0 -1
vn 0 0 -1
vn 0 0 -1
vn 0 0 1
vn 0 0 1
vn 0 0 1
vn 0 0 1
vn 0 0 1
vn 0 0 1
vn 0 0 1
vn 0 0 1
vn 0 0 1
vn 0 -0 -1
vn 0 -0 -1
vn 0 -0 -1
vn 0 -0 -1
vn 0 -0 -1
vn 0 -0 -1
vn 0 0 -1
vn 0 0 -1
vn 0 0 -1
vn 0 0 -1
vn 0 0 -1
vn 0 0 -1
vn 0 0 1
vn 0 0 1
vn 0 0 1
vn 0 0 1
vn 0 0 1
vn 0 0 1
vn 0 0 1
vn 0 0 1
vn 0 0 1
vn 0 0 1
vn 0 0 1
vn 0 0 1
vn 0 0 -1
vn 0 0 -1
vn 0 0 -1
vn 0 -0 -1
vn 0 -0 -1
vn 0 -0 -1
vn 0 0 -1
vn 0 0 -1
vn 0 0 -1
vn 0 0 1
vn 0 0 1
vn 0 0 1
vn 0 0 1
vn 0 0 1
vn 0 0 1
vn 0 0 1
vn 0 0 1
vn 0 0 1
vn 0 -0 -1
vn 0 -0 -1
vn 0 -0 -1
vn 0 0 -1
vn 0 0 -1
vn 0 0 -1
vn 0 0 -1
vn 0 0 -1
vn 0 0 -1
vn 0 0 -1
vn 0 0 -1
vn 0 0 -1
vn 0 0 1
vn 0 0 1
vn 0 0 1
vn 0 0 1
vn 0 0 1
vn 0 0 1
vn 0 0 1
vn 0 0 1
vn 0 0 1
vn 0 0 1
vn 0 0 1
vn 0 0 1
g Default
usemtl Default
s off
f 66//1 4//2 1//3 63//4
f 63//5 1//6 2//7 64//8
f 2//9 3//10 65//11 64//12
f 3//13 4//14 66//15 65//16
f 67//17 5//18 9//19 71//20
f 6//21 5//22 67//23 68//24
f 7//25 6//26 68//27 69//28
f 8//29 7//30 69//31 70//32
f 71//33 9//34 8//35 70//36
f 75//37 13//38 10//39 72//40
f 10//41 11//42 73//43 72//44
f 11//45 12//46 74//47 73//48
f 74//49 12//50 13//51 75//52
f 79//53 17//54 14//55 76//56
f 76//57 14//58 15//59 77//60
f 15//61 16//62 78//63 77//64
f 16//65 17//66 79//67 78//68
f 83//69 21//70 18//71 80//72
f 80//73 18//74 19//75 81//76
f 19//77 20//78 82//79 81//80
f 20//81 21//82 83//83 82//84
f 84//85 22//86 27//87 89//88
f 23//89 22//90 84//91 85//92
f 24//93 23//94 85//95 86//96
f 25//97 24//98 86//99 87//100
f 26//101 25//102 87//103 88//104
f 89//105 27//106 26//107 88//108
f 31//109 28//110 90//111 93//112
f 28//113 29//114 91//115 90//116
f 91//117 29//118 30//119 92//120
f 92//121 30//122 31//123 93//124
f 94//125 32//126 36//127 98//128
f 33//129 32//130 94//131 95//132
f 34//133 33//134 95//135 96//136
f 97//137 35//138 34//139 96//140
f 98//141 36//142 35//143 97//144
f 40//145 37//146 99//147 102//148
f 37//149 38//150 100//151 99//152
f 100//153 38//154 39//155 101//156
f 101//157 39//158 40//159 102//160
f 44//161 41//162 103//163 106//164
f 41//165 42//166 104//167 103//168
f 104//169 42//170 43//171 105//172
f 105//173 43//174 44//175 106//176
f 107//177 45//178 50//179 112//180
f 46//181 45//182 107//183 108//184
f 47//185 46//186 108//187 109//188
f 110//189 48//190 47//191 109//192
f 111//193 49//194 48//195 110//196
f 112//197 50//198 49//199 111//200
f 113//201 51//202 54//203 116//204
f 114//205 52//206 51//207 113//208
f 53//209 52//210 114//211 115//212
f 54//213 53//214 115//215 116//216
f 120//217 58//218 55//219 117//220
f 55//221 56//222 118//223 117//224
f 56//225 57//226 119//227 118//228
f 119//229 57//230 58//231 120//232
f 121//233 59//234 62//235 124//236
f 122//237 60//238 59//239 121//240
f 61//241 60//242 122//243 123//244
f 62//245 61//246 123//247 124//248
f 4//249 3//250 2//251 1//252
f 64//253 65//254 66//255 63//256
f 13//257 12//258 11//259 10//260
f 73//261 74//262 75//263 72//264
f 17//265 16//266 15//267 14//268
f 77//269 78//270 79//271 76//272
f 21//273 20//274 19//275 18//276
f 81//277 82//278 83//279 80//280
f 31//281 30//282 29//283 28//284
f 91//285 92//286 93//287 90//288
f 40//289 39//290 38//291 37//292
f 100//293 101//294 102//295 99//296
f 44//297 43//298 42//299 41//300
f 104//301 105//302 106//303 103//304
f 52//305 53//306 54//307 51//308
f 116//309 115//310 114//311 113//312
f 58//313 57//314 56//315 55//316
f 118//317 119//318 120//319 117//320
f 60//321 61//322 62//323 59//324
f 124//325 123//326 122//327 121//328
f 131//329 125//330 128//331 134//332
f 127//333 126//334 132//335 133//336
f 128//337 127//338 133//339 134//340
f 126//341 130//342 136//343 132//344
f 135//345 129//346 125//347 131//348
f 136//349 130//350 129//351 135//352
f 126//353 127//354 128//355 125//356
f 134//357 133//358 132//359 131//360
f 125//361 129//362 130//363 126//364
f 136//365 135//366 131//367 132//368
f 139//369 137//370 140//371 142//372
f 140//373 137//374 138//375 141//376
f 138//377 139//378 142//379 141//380
f 139//381 138//382 137//383
f 141//384 142//385 140//386
f 5//387 6//388 7//389
f 5//390 7//391 9//392
f 9//393 7//394 8//395
f 68//396 67//397 69//398
f 69//399 67//400 71//401
f 69//402 71//403 70//404
f 22//405 23//406 27//407
f 24//408 25//409 26//410
f 27//411 24//412 26//413
f 23//414 24//415 27//416
f 85//417 84//418 89//419
f 86//420 85//421 89//422
f 87//423 86//424 88//425
f 86//426 89//427 88//428
f 36//429 32//430 35//431
f 35//432 32//433 33//434
f 35//435 33//436 34//437
f 94//438 98//439 97//440
f 94//441 97//442 95//443
f 95//444 97//445 96//446
f 50//447 45//448 46//449
f 49//450 50//451 46//452
f 48//453 49//454 47//455
f 49//456 46//457 47//458
f 107//459 112//460 108//461
f 111//462 110//463 109//464
f 108//465 111//466 109//467
f 112//468 111//469 108//470
