####
#
#	OBJ File Generated by LightWave3D
#	LightWave3D OBJ Export v2.3
#
####
o recognizer.obj
mtllib recognizer.mtl
g default
v -0.4575 0.12 -0.05
v -0.3725 0.12 -0.05
v -0.3725 0.215 -0.05
v -0.4575 0.215 -0.05
v -0.4525 0.045 -0.05
v -0.3725 0.045 -0.05
v -0.3725 -0.33 -0.05
v -0.2375 -0.41 -0.05
v -0.4525 -0.41 -0.05
v -0.4575 0.07 -0.05
v 0.4625 0.07 -0.05
v 0.4625 0.095 -0.05
v -0.4575 0.095 -0.05
v -0.4925 0.24 -0.05
v -0.0125 0.24 -0.05
v -0.0125 0.26 -0.05
v -0.4925 0.26 -0.05
v -0.3575 0.155 -0.05
v -0.2875 0.155 -0.05
v -0.2875 0.185 -0.05
v -0.3575 0.185 -0.05
v -0.2925 0.23 -0.05
v -0.1575 0.23 -0.05
v -0.1075 0.17 -0.05
v -0.0175 0.17 -0.05
v -0.0175 0.135 -0.05
v -0.2175 0.135 -0.05
v 0.4575 0.12 -0.05
v 0.4575 0.215 -0.05
v 0.3725 0.215 -0.05
v 0.3725 0.12 -0.05
v 0.4525 0.045 -0.05
v 0.4525 -0.41 -0.05
v 0.2375 -0.41 -0.05
v 0.3725 -0.33 -0.05
v 0.3725 0.045 -0.05
v 0.4925 0.24 -0.05
v 0.4925 0.26 -0.05
v 0.0125 0.26 -0.05
v 0.0125 0.24 -0.05
v 0.3575 0.155 -0.05
v 0.3575 0.185 -0.05
v 0.2875 0.185 -0.05
v 0.2875 0.155 -0.05
v 0.2925 0.23 -0.05
v 0.2175 0.135 -0.05
v 0.0175 0.135 -0.05
v 0.0175 0.17 -0.05
v 0.1075 0.17 -0.05
v 0.1575 0.23 -0.05
v -0.0825 0.055 -0.05
v 0.0825 0.055 -0.05
v 0.0625 0.035 -0.05
v -0.0575 0.035 -0.05
v -0.0895 0.105 -0.05
v 0.0905 0.105 -0.05
v 0.0905 0.123 -0.05
v -0.0895 0.123 -0.05
v -0.1255 0.219 -0.05
v 0.1245 0.219 -0.05
v 0.0885 0.177 -0.05
v -0.0875 0.177 -0.05
v -0.4575 0.12 0.05
v -0.3725 0.12 0.05
v -0.3725 0.215 0.05
v -0.4575 0.215 0.05
v -0.4525 0.045 0.05
v -0.3725 0.045 0.05
v -0.3725 -0.33 0.05
v -0.2375 -0.41 0.05
v -0.4525 -0.41 0.05
v -0.4575 0.07 0.05
v 0.4625 0.07 0.05
v 0.4625 0.095 0.05
v -0.4575 0.095 0.05
v -0.4925 0.24 0.05
v -0.0125 0.24 0.05
v -0.0125 0.26 0.05
v -0.4925 0.26 0.05
v -0.3575 0.155 0.05
v -0.2875 0.155 0.05
v -0.2875 0.185 0.05
v -0.3575 0.185 0.05
v -0.2925 0.23 0.05
v -0.1575 0.23 0.05
v -0.1075 0.17 0.05
v -0.0175 0.17 0.05
v -0.0175 0.135 0.05
v -0.2175 0.135 0.05
v 0.4575 0.12 0.05
v 0.4575 0.215 0.05
v 0.3725 0.215 0.05
v 0.3725 0.12 0.05
v 0.4525 0.045 0.05
v 0.4525 -0.41 0.05
v 0.2375 -0.41 0.05
v 0.3725 -0.33 0.05
v 0.3725 0.045 0.05
v 0.4925 0.24 0.05
v 0.4925 0.26 0.05
v 0.0125 0.26 0.05
v 0.0125 0.24 0.05
v 0.3575 0.155 0.05
v 0.3575 0.185 0.05
v 0.2875 0.185 0.05
v 0.2875 0.155 0.05
v 0.2925 0.23 0.05
v 0.2175 0.135 0.05
v 0.0175 0.135 0.05
v 0.0175 0.17 0.05
v 0.1075 0.17 0.05
v 0.1575 0.23 0.05
v -0.0825 0.055 0.05
v 0.0825 0.055 0.05
v 0.0625 0.035 0.05
v -0.0575 0.035 0.05
v -0.0895 0.105 0.05
v 0.0905 0.105 0.05
v 0.0905 0.123 0.05
v -0.0895 0.123 0.05
v -0.1255 0.219 0.05
v 0.1245 0.219 0.05
v 0.0885 0.177 0.05
v -0.0875 0.177 0.05
v -0.2352 0.281 -0.049725
v 0.23406 0.281 -0.049725
v 0.2285 0.263 -0.0425
v -0.2295 0.263 -0.0425
v -0.02272 0.395 -0.0130475
v 0.02578 0.395 -0.0130475
v -0.2352 0.281 0.049725
v 0.23406 0.281 0.049725
v 0.2285 0.263 0.0425
v -0.2295 0.263 0.0425
v -0.02272 0.395 0.0065025
v 0.02578 0.395 0.0065025
v 0.00442686 0.38135 -0.030104
v -0.00346766 0.364718 -0.0371063
v 0.0125317 0.364844 -0.0371653
v 0.00446576 0.379007 -0.0245808
v -0.00342876 0.362374 -0.0315832
v 0.0125706 0.362501 -0.0316421
vn -1 0 -0
vn -1 0 -0
vn -1 0 -0
vn -1 0 -0
vn 0 -1 -0
vn 0 -1 -0
vn 0 -1 -0
vn 0 -1 -0
vn 1 0 -0
vn 1 0 -0
vn 1 0 -0
vn 1 0 -0
vn 0 1 0
vn 0 1 0
vn 0 1 0
vn 0 1 0
vn -1 0 -0
vn -1 0 -0
vn -1 0 -0
vn -1 0 -0
vn 0 1 0
vn 0 1 0
vn 0 1 0
vn 0 1 0
vn 1 0 -0
vn 1 0 -0
vn 1 0 -0
vn 1 0 -0
vn 0.509802 0.860292 0
vn 0.509802 0.860292 0
vn 0.509802 0.860292 0
vn 0.509802 0.860292 0
vn 0 -1 -0
vn 0 -1 -0
vn 0 -1 -0
vn 0 -1 -0
vn -1 0 -0
vn -1 0 -0
vn -1 0 -0
vn -1 0 -0
vn 0 -1 -0
vn 0 -1 -0
vn 0 -1 -0
vn 0 -1 -0
vn 1 0 -0
vn 1 0 -0
vn 1 0 -0
vn 1 0 -0
vn 0 1 -0
vn 0 1 -0
vn 0 1 -0
vn 0 1 -0
vn -1 0 -0
vn -1 0 -0
vn -1 0 -0
vn -1 0 -0
vn 0 -1 -0
vn 0 -1 -0
vn 0 -1 -0
vn 0 -1 -0
vn 1 0 -0
vn 1 0 -0
vn 1 0 -0
vn 1 0 -0
vn 0 1 0
vn 0 1 0
vn 0 1 0
vn 0 1 0
vn -1 0 -0
vn -1 0 -0
vn -1 0 -0
vn -1 0 -0
vn 0 -1 -0
vn 0 -1 -0
vn 0 -1 -0
vn 0 -1 -0
vn 1 0 -0
vn 1 0 -0
vn 1 0 -0
vn 1 0 -0
vn 0 1 0
vn 0 1 0
vn 0 1 0
vn 0 1 0
vn -0.784883 -0.619644 -0
vn -0.784883 -0.619644 -0
vn -0.784883 -0.619644 -0
vn -0.784883 -0.619644 -0
vn 0 1 0
vn 0 1 0
vn 0 1 0
vn 0 1 0
vn 0.768221 0.640185 0
vn 0.768221 0.640185 0
vn 0.768221 0.640185 0
vn 0.768221 0.640185 0
vn 0 1 0
vn 0 1 0
vn 0 1 0
vn 0 1 0
vn 1 0 -0
vn 1 0 -0
vn 1 0 -0
vn 1 0 -0
vn 0 -1 -0
vn 0 -1 -0
vn 0 -1 -0
vn 0 -1 -0
vn 0 -1 -0
vn 0 -1 -0
vn 0 -1 -0
vn 0 -1 -0
vn 1 0 -0
vn 1 0 -0
vn 1 0 -0
vn 1 0 -0
vn 0 1 -0
vn 0 1 -0
vn 0 1 -0
vn 0 1 -0
vn -1 0 -0
vn -1 0 -0
vn -1 0 -0
vn -1 0 -0
vn 0 1 -0
vn 0 1 -0
vn 0 1 -0
vn 0 1 -0
vn 1 0 -0
vn 1 0 -0
vn 1 0 -0
vn 1 0 -0
vn 0 -1 -0
vn 0 -1 -0
vn 0 -1 -0
vn 0 -1 -0
vn -0.509802 0.860292 -0
vn -0.509802 0.860292 -0
vn -0.509802 0.860292 -0
vn -0.509802 0.860292 -0
vn -1 0 -0
vn -1 0 -0
vn -1 0 -0
vn -1 0 -0
vn 0 -1 -0
vn 0 -1 -0
vn 0 -1 -0
vn 0 -1 -0
vn 1 0 -0
vn 1 0 -0
vn 1 0 -0
vn 1 0 -0
vn 0 1 -0
vn 0 1 -0
vn 0 1 -0
vn 0 1 -0
vn -1 0 -0
vn -1 0 -0
vn -1 0 -0
vn -1 0 -0
vn 0 -1 -0
vn 0 -1 -0
vn 0 -1 -0
vn 0 -1 -0
vn 1 0 -0
vn 1 0 -0
vn 1 0 -0
vn 1 0 -0
vn 0 1 -0
vn 0 1 -0
vn 0 1 -0
vn 0 1 -0
vn -1 0 -0
vn -1 0 -0
vn -1 0 -0
vn -1 0 -0
vn 0 1 -0
vn 0 1 -0
vn 0 1 -0
vn 0 1 -0
vn 0.784883 -0.619644 -0
vn 0.784883 -0.619644 -0
vn 0.784883 -0.619644 -0
vn 0.784883 -0.619644 -0
vn 0 -1 -0
vn 0 -1 -0
vn 0 -1 -0
vn 0 -1 -0
vn -1 0 -0
vn -1 0 -0
vn -1 0 -0
vn -1 0 -0
vn 0 1 -0
vn 0 1 -0
vn 0 1 -0
vn 0 1 -0
vn -0.768221 0.640185 -0
vn -0.768221 0.640185 -0
vn -0.768221 0.640185 -0
vn -0.768221 0.640185 -0
vn -0.624695 -0.780869 -0
vn -0.624695 -0.780869 -0
vn -0.624695 -0.780869 -0
vn -0.624695 -0.780869 -0
vn 0 1 -0
vn 0 1 -0
vn 0 1 -0
vn 0 1 -0
vn 0.707107 -0.707107 -0
vn 0.707107 -0.707107 -0
vn 0.707107 -0.707107 -0
vn 0.707107 -0.707107 -0
vn 0 -1 -0
vn 0 -1 -0
vn 0 -1 -0
vn 0 -1 -0
vn -1 0 -0
vn -1 0 -0
vn -1 0 -0
vn -1 0 -0
vn 0 -1 -0
vn 0 -1 -0
vn 0 -1 -0
vn 0 -1 -0
vn 1 0 -0
vn 1 0 -0
vn 1 0 -0
vn 1 0 -0
vn 0 1 -0
vn 0 1 -0
vn 0 1 -0
vn 0 1 -0
vn -0.741536 -0.670913 -0
vn -0.741536 -0.670913 -0
vn -0.741536 -0.670913 -0
vn -0.741536 -0.670913 -0
vn 0 1 -0
vn 0 1 -0
vn 0 1 -0
vn 0 1 -0
vn 0.759257 -0.650791 -0
vn 0.759257 -0.650791 -0
vn 0.759257 -0.650791 -0
vn 0.759257 -0.650791 -0
vn 0 -1 -0
vn 0 -1 -0
vn 0 -1 -0
vn 0 -1 -0
vn 0 0 -1
vn 0 0 -1
vn 0 0 -1
vn 0 0 -1
vn 0 0 1
vn 0 0 1
vn 0 0 1
vn 0 0 1
vn -0 0 -1
vn -0 0 -1
vn -0 0 -1
vn -0 0 -1
vn -0 0 -1
vn 0 0 1
vn 0 0 1
vn 0 0 1
vn 0 0 1
vn 0 0 1
vn 0 0 -1
vn 0 0 -1
vn 0 0 -1
vn 0 0 -1
vn 0 0 1
vn 0 0 1
vn 0 0 1
vn 0 0 1
vn 0 0 -1
vn 0 0 -1
vn 0 0 -1
vn 0 0 -1
vn 0 0 1
vn 0 0 1
vn 0 0 1
vn 0 0 1
vn 0 0 -1
vn 0 0 -1
vn 0 0 -1
vn 0 0 -1
vn 0 0 1
vn 0 0 1
vn 0 0 1
vn 0 0 1
vn -0 0 -1
vn -0 0 -1
vn -0 0 -1
vn -0 0 -1
vn -0 0 -1
vn -0 0 -1
vn 0 0 1
vn 0 0 1
vn 0 0 1
vn 0 0 1
vn 0 0 1
vn 0 0 1
vn 0 -0 -1
vn 0 -0 -1
vn 0 -0 -1
vn 0 -0 -1
vn 0 0 1
vn 0 0 1
vn 0 0 1
vn 0 0 1
vn 0 0 -1
vn 0 0 -1
vn 0 0 -1
vn 0 0 -1
vn 0 0 -1
vn -0 -0 1
vn -0 -0 1
vn -0 -0 1
vn -0 -0 1
vn -0 -0 1
vn 0 -0 -1
vn 0 -0 -1
vn 0 -0 -1
vn 0 -0 -1
vn 0 0 1
vn 0 0 1
vn 0 0 1
vn 0 0 1
vn 0 -0 -1
vn 0 -0 -1
vn 0 -0 -1
vn 0 -0 -1
vn 0 0 1
vn 0 0 1
vn 0 0 1
vn 0 0 1
vn 0 0 -1
vn 0 0 -1
vn 0 0 -1
vn 0 0 -1
vn 0 0 -1
vn 0 0 -1
vn -0 0 1
vn -0 0 1
vn -0 0 1
vn -0 0 1
vn -0 0 1
vn -0 0 1
vn -0 0 -1
vn -0 0 -1
vn -0 0 -1
vn -0 0 -1
vn 0 0 1
vn 0 0 1
vn 0 0 1
vn 0 0 1
vn 0 0 -1
vn 0 0 -1
vn 0 0 -1
vn 0 0 -1
vn 0 0 1
vn 0 0 1
vn 0 0 1
vn 0 0 1
vn -0 0 -1
vn -0 0 -1
vn -0 0 -1
vn -0 0 -1
vn 0 0 1
vn 0 0 1
vn 0 0 1
vn 0 0 1
vn -0.953342 -0.301892 -0
vn -0.953342 -0.301892 -0
vn -0.953342 -0.301892 -0
vn -0.953342 -0.301892 -0
vn 0.955457 -0.29513 -0
vn 0.955457 -0.29513 -0
vn 0.955457 -0.29513 -0
vn 0.955457 -0.29513 -0
vn 0 -1 -0
vn 0 -1 -0
vn 0 -1 -0
vn 0 -1 -0
vn 0.480126 0.877199 0
vn 0.480126 0.877199 0
vn 0.480126 0.877199 0
vn 0.480126 0.877199 0
vn -0.472774 0.881184 -0
vn -0.472774 0.881184 -0
vn -0.472774 0.881184 -0
vn -0.472774 0.881184 -0
vn 0 1 -0
vn 0 1 -0
vn 0 1 -0
vn 0 1 -0
vn 0 -0.372501 -0.928032
vn 0 -0.372501 -0.928032
vn 0 -0.372501 -0.928032
vn 0 -0.372501 -0.928032
vn 0 -0.372501 0.928032
vn 0 -0.372501 0.928032
vn 0 -0.372501 0.928032
vn 0 -0.372501 0.928032
vn 0 0.306271 -0.951944
vn 0 0.306271 -0.951944
vn 0 0.306271 -0.951944
vn 0 0.306271 -0.951944
vn 0 0.354519 0.935049
vn 0 0.354519 0.935049
vn 0 0.354519 0.935049
vn 0 0.354519 0.935049
vn 0.911403 0.381088 0.155293
vn 0.911403 0.381088 0.155293
vn 0.911403 0.381088 0.155293
vn 0.911403 0.381088 0.155293
vn -0.91615 0.366629 0.162028
vn -0.91615 0.366629 0.162028
vn -0.91615 0.366629 0.162028
vn -0.91615 0.366629 0.162028
vn 0.00584246 -0.920518 -0.390656
vn 0.00584246 -0.920518 -0.390656
vn 0.00584246 -0.920518 -0.390656
vn 0.00584246 -0.920518 -0.390656
vn -0.00648266 0.390619 -0.920529
vn -0.00648266 0.390619 -0.920529
vn -0.00648266 0.390619 -0.920529
vn 0.00648266 -0.390619 0.920529
vn 0.00648266 -0.390619 0.920529
vn 0.00648266 -0.390619 0.920529
g Default
usemtl Default
s off
f 66//1 4//2 1//3 63//4
f 63//5 1//6 2//7 64//8
f 2//9 3//10 65//11 64//12
f 3//13 4//14 66//15 65//16
f 67//17 5//18 9//19 71//20
f 6//21 5//22 67//23 68//24
f 7//25 6//26 68//27 69//28
f 8//29 7//30 69//31 70//32
f 71//33 9//34 8//35 70//36
f 75//37 13//38 10//39 72//40
f 10//41 11//42 73//43 72//44
f 11//45 12//46 74//47 73//48
f 74//49 12//50 13//51 75//52
f 79//53 17//54 14//55 76//56
f 76//57 14//58 15//59 77//60
f 15//61 16//62 78//63 77//64
f 16//65 17//66 79//67 78//68
f 83//69 21//70 18//71 80//72
f 80//73 18//74 19//75 81//76
f 19//77 20//78 82//79 81//80
f 20//81 21//82 83//83 82//84
f 84//85 22//86 27//87 89//88
f 23//89 22//90 84//91 85//92
f 24//93 23//94 85//95 86//96
f 25//97 24//98 86//99 87//100
f 26//101 25//102 87//103 88//104
f 89//105 27//106 26//107 88//108
f 31//109 28//110 90//111 93//112
f 28//113 29//114 91//115 90//116
f 91//117 29//118 30//119 92//120
f 92//121 30//122 31//123 93//124
f 94//125 32//126 36//127 98//128
f 33//129 32//130 94//131 95//132
f 34//133 33//134 95//135 96//136
f 97//137 35//138 34//139 96//140
f 98//141 36//142 35//143 97//144
f 40//145 37//146 99//147 102//148
f 37//149 38//150 100//151 99//152
f 100//153 38//154 39//155 101//156
f 101//157 39//158 40//159 102//160
f 44//161 41//162 103//163 106//164
f 41//165 42//166 104//167 103//168
f 104//169 42//170 43//171 105//172
f 105//173 43//174 44//175 106//176
f 107//177 45//178 50//179 112//180
f 46//181 45//182 107//183 108//184
f 47//185 46//186 108//187 109//188
f 110//189 48//190 47//191 109//192
f 111//193 49//194 48//195 110//196
f 112//197 50//198 49//199 111//200
f 113//201 51//202 54//203 116//204
f 114//205 52//206 51//207 113//208
f 53//209 52//210 114//211 115//212
f 54//213 53//214 115//215 116//216
f 120//217 58//218 55//219 117//220
f 55//221 56//222 118//223 117//224
f 56//225 57//226 119//227 118//228
f 119//229 57//230 58//231 120//232
f 121//233 59//234 62//235 124//236
f 122//237 60//238 59//239 121//240
f 61//241 60//242 122//243 123//244
f 62//245 61//246 123//247 124//248
f 4//249 3//250 2//251 1//252
f 64//253 65//254 66//255 63//256
f 6//257 7//258 8//259 9//260 5//261
f 71//262 70//263 69//264 68//265 67//266
f 13//267 12//268 11//269 10//270
f 73//271 74//272 75//273 72//274
f 17//275 16//276 15//277 14//278
f 77//279 78//280 79//281 76//282
f 21//283 20//284 19//285 18//286
f 81//287 82//288 83//289 80//290
f 23//291 24//292 25//293 26//294 27//295 22//296
f 89//297 88//298 87//299 86//300 85//301 84//302
f 31//303 30//304 29//305 28//306
f 91//307 92//308 93//309 90//310
f 33//311 34//312 35//313 36//314 32//315
f 98//316 97//317 96//318 95//319 94//320
f 40//321 39//322 38//323 37//324
f 100//325 101//326 102//327 99//328
f 44//329 43//330 42//331 41//332
f 104//333 105//334 106//335 103//336
f 46//337 47//338 48//339 49//340 50//341 45//342
f 112//343 111//344 110//345 109//346 108//347 107//348
f 52//349 53//350 54//351 51//352
f 116//353 115//354 114//355 113//356
f 58//357 57//358 56//359 55//360
f 118//361 119//362 120//363 117//364
f 60//365 61//366 62//367 59//368
f 124//369 123//370 122//371 121//372
f 131//373 125//374 128//375 134//376
f 127//377 126//378 132//379 133//380
f 128//381 127//382 133//383 134//384
f 126//385 130//386 136//387 132//388
f 135//389 129//390 125//391 131//392
f 136//393 130//394 129//395 135//396
f 126//397 127//398 128//399 125//400
f 134//401 133//402 132//403 131//404
f 125//405 129//406 130//407 126//408
f 136//409 135//410 131//411 132//412
f 139//413 137//414 140//415 142//416
f 140//417 137//418 138//419 141//420
f 138//421 139//422 142//423 141//424
f 139//425 138//426 137//427
f 141//428 142//429 140//430
